<?xml version="1.0" encoding="utf-8"?>
<!-- Generator: Adobe Illustrator 25.2.0, SVG Export Plug-In . SVG Version: 6.00 Build 0)  -->
<svg version="1.1" id="Layer_1" xmlns="http://www.w3.org/2000/svg" xmlns:xlink="http://www.w3.org/1999/xlink" x="0px" y="0px"
	 viewBox="0 0 450.9 129.9" style="enable-background:new 0 0 450.9 129.9;" xml:space="preserve">
<style type="text/css">
	.st0{fill:#4CAF50;}
	.st1{fill:#358438;}
</style>
<g>
	<g>
		<g>
			<path class="st0" d="M87.8,55.7c0.4-1.2,1.4-1.9,2.4-2.3c3-1.1,6-1.1,8.9,0.4c2.3,1.1,4.4,2.5,6.3,4.4c-2.9,0.9-5,2.8-7.5,4.1
				c-3.5,1.8-7,1.1-9.7-1.7c-1.2-1.2-1.2-1.2-2.6-0.2c-3.4,2.4-4.8,5.8-4.8,9.9c0,2,0.1,4.1,0.2,6.1c0,0.9-0.2,1.3-1.2,1.2
				c-1-0.1-2-0.1-2.9,0c-0.9,0.1-1.2-0.2-1-1.2c0.7-2.6,0.6-5.2,0.5-7.8c-0.2-5.2-2.3-9.8-5.1-14.1c-0.8-1.2-1.8-2.2-2.6-3.4
				c-0.5-0.7-1-0.7-1.6-0.1c-1,1.1-2.2,1.9-3.6,2.5c-4.3,2-8.2,0.7-11.7-1.9c-4.2-3.1-6.9-7.5-9-12.2c-0.4-0.9-0.2-1.2,0.8-1.3
				c2.9-0.3,5.8-0.8,8.7-1.1c3.6-0.4,7.1-0.2,10.5,1.2c3.1,1.2,5.5,3.2,6.5,6.6c0.1,0.3,0.1,0.6,0.2,0.9c0,0.2,0,0.3,0,0.8
				c-6.3-4.7-12.9-8-20.8-7.1c5.5,1.2,10.7,2.9,15.5,5.9c4.8,3,8.8,6.9,12.3,11.4c0.6-0.6,0.6-1.2,0.7-1.8c1-6.7,2.9-13.1,7-18.6
				c2.8-3.7,6.4-6.7,10-9.6c2.7-2.2,5.6-4.3,8-6.9c0.4-0.4,1-0.8,0.9-1.5c0.1,0.1,0.1,0.1,0.2,0c0,0,0-0.1,0-0.1
				c-0.1,0-0.1,0.1-0.2,0.1c-0.6,0.1-1,0.6-1.4,1c-3.1,2.9-6.8,4.9-10.6,6.8c-5.9,3-9.7,7.9-12.3,13.9c-0.6,1.5-1.3,3-1.9,4.4
				c-0.4,0.1-0.5,0-0.6-0.1c-2.5-3.8-4.1-7.8-3.3-12.4c0.7-4,3.1-6.8,6.1-9.2c4.2-3.3,9.1-5.3,14.2-6.8c3.2-1,6.5-1.9,9.7-2.9
				c1.9-0.6,3.6-1.4,5.3-2.7c0.4,0.9,0.2,1.7,0.1,2.4c-0.2,5.5-0.6,11-1.8,16.4c-1.1,5-2.7,9.9-6,13.9C97.5,47,93.5,49,88.6,49
				c-2.3,0-4.6-0.1-6.9-0.8c-1-0.3-1.5-0.1-1.8,1c-1.4,4.5-1.5,9-0.5,13.9c2.9-2.7,5.7-5.3,9.4-6.5c3.7-1.2,7.4-1.1,11.2-0.2
				c0-0.7-0.5-0.7-0.8-0.8c-3.3-1.2-6.6-1.2-10-0.3C88.7,55.4,88.2,55.5,87.8,55.7L87.8,55.7z"/>
			<path class="st0" d="M40,84.3c1.1,0.1,1.9,0.5,2.6,0.9c5.4,2.4,9.9,6.1,13.6,10.7c0.7,0.8,0.8,1.5,0.1,2.4c-1.1,1.5-2,3.3-2.8,5
				c-0.4,0.8-0.7,0.8-1.4,0.3c-4.2-3.7-7.5-8-9.9-13.1C41.3,88.5,40.5,86.5,40,84.3z"/>
			<path class="st0" d="M39.6,74.6c4.4,0.4,8.7,1.2,12.9,2.4c5.4,1.6,10.5,3.8,15.4,6.6c1.3,0.8,1.3,0.8,0.1,1.7
				c-1.1,0.9-2.1,1.7-3.1,2.7c-0.6,0.5-0.9,0.5-1.5,0c-5-4.4-10.7-7.5-17-9.7c-2.2-0.8-4.5-1.4-6.8-1.8c-0.3-0.1-0.7,0-0.9-0.4
				c-0.2-0.4-0.3-0.8-0.1-1.2C38.7,74.4,39.2,74.7,39.6,74.6z"/>
			<path class="st0" d="M58.5,95.1c-2.9-3.9-6.3-7.1-10.3-9.6c-2.4-1.5-4.9-2.7-7.5-3.7c-0.4-0.1-0.8-0.2-1.1-0.4
				c-0.8-0.4-0.8-1.3-0.7-2c0.2-0.8,0.9-0.3,1.3-0.2c7.8,1.7,14.8,5.1,21,10.2c1.2,1,1.1,1,0.2,2.1C60.5,92.6,59.5,93.8,58.5,95.1z"
				/>
			<path class="st0" d="M49.8,73.8c9.1,0.4,17.9,2.1,26.5,6.1c-1.7,1-3.1,1.9-4.6,2.7c-0.5,0.3-0.9-0.1-1.4-0.3
				C64.9,78.8,59,76.5,53,74.7C51.9,74.4,50.8,74.1,49.8,73.8z"/>
		</g>
		<g>
			<path class="st1" d="M124.4,73.4c0,20.3-13.7,38.5-33,44c-15.4,4.4-29.6,1.5-42.1-8.5c-9.8-7.9-15.3-18.3-16.6-30.9
				c-1.2-12.1,1.9-23,9.1-32.7c0.2-0.2,0.4-0.5,0.6-0.7c0.4-0.5,0.7-0.6,1.1,0c1.4,2.1,1.5,2.1,0,4.2c-5.1,7.5-7.8,15.8-7.7,24.8
				c0.2,20.1,14.2,36.9,33.1,41.2c19.9,4.5,39.8-5.4,48.2-23.9c7.9-17.2,3.4-37.5-11.1-50.1c-0.4-0.3-1.1-0.6-0.9-1.2
				c0.2-0.9,0.6-1.8,1.1-2.5c0.3-0.5,0.7,0,1,0.3c3.3,2.6,6.2,5.6,8.6,9.1c4.2,5.9,6.9,12.3,8,19.4C124.2,68.4,124.5,71,124.4,73.4z
				"/>
			<path class="st1" d="M75.8,113.4c-3.9-0.3-7.6-1.1-11.2-2.3c-1-0.3-1.2-0.7-0.6-1.7c7-12.7,16.9-22.2,29.9-28.5
				c7.4-3.6,15.1-5.7,23.3-6.3c0.5,0,1.2-0.4,1.3,0.6c0.1,0.8-0.1,1.3-1.1,1.5c-15.9,3.3-27.8,12.1-35.8,26.2
				c-1.7,2.9-3,6.1-3.9,9.3C77.4,113.2,76.9,113.7,75.8,113.4z"/>
			<path class="st1" d="M107.2,73.7C91.8,77.6,79,85.6,69,97.9c-2.7,3.3-5,6.8-6.9,10.6c-0.5,1-1,1.2-1.9,0.6
				c-1.7-0.9-3.3-1.9-4.9-3c-0.9-0.5-0.9-1.1-0.5-1.9c3-5.9,6.9-11.1,11.7-15.6c6.7-6.2,14.7-9.7,23.3-12.2c5-1.4,10.2-2.3,15.3-2.8
				C105.8,73.6,106.5,73.7,107.2,73.7z"/>
			<path class="st1" d="M81.1,113.4c-1.5,0.1-1.6,0-1-1.7c5.4-15.1,15.6-25.5,30.6-31.1c1.8-0.7,3.7-1.2,5.6-1.6
				c0.6-0.1,1.3-0.7,1.7,0.2c0.3,0.8-0.4,2-1.2,2.3c-1.2,0.5-2.4,0.9-3.6,1.4c-11.6,5.6-18.8,14.7-21.6,27.3
				c-0.2,0.7-0.4,1.1-1.2,1.4C87.4,112.6,84.3,113.2,81.1,113.4z"/>
			<path class="st1" d="M94.2,110c1.5-10.5,11-22.3,22.6-25.9C117.5,91.3,102.1,109,94.2,110z"/>
			<path class="st1" d="M52.7,35.2c6-4.2,12.6-6.7,20-7.7c-0.4,1.2-0.8,2.2-1.1,3.2c-0.2,0.5-0.5,0.5-0.9,0.6c-4,0.8-7.8,2-11.4,3.9
				c-0.5,0.3-1.1,0.4-1.7,0.3C56,35.3,54.3,35.5,52.7,35.2z"/>
			<path class="st1" d="M87.8,55.7c-0.1,0-0.1,0.1-0.2,0.1c0,0-0.1,0-0.1,0C87.6,55.7,87.7,55.7,87.8,55.7L87.8,55.7z"/>
		</g>
	</g>
	<g>
		<g>
			<path class="st1" d="M158.4,46.7l16.4,41.6h-12.6l-3-7.7h-14.1l-3,7.7h-12.6l16.4-41.6H158.4z M155.5,71.1l-3.3-8.4l-3.3,8.4
				H155.5z"/>
			<path class="st1" d="M191.5,101.2c-5.1,0-10.3-2.2-12.8-5.9l5.7-6c1.6,1.4,3.4,2.4,6.2,2.4c4,0,6.7-2.5,6.7-6.3v-2.1
				c-2,3-5.1,4.9-8.8,4.9c-7.3,0-12.5-6.4-12.5-15.2s5.2-15.2,12.5-15.2c3.7,0,6.8,1.8,8.8,4.9v-3.9h10.7v26.8
				C208.2,94.5,201.3,101.2,191.5,101.2L191.5,101.2z M192.2,80.5c2.9,0,5-2.3,5-5.5v-4.3c0-3.2-2.1-5.5-5-5.5
				c-3.1,0-5.4,3.2-5.4,7.7S189.1,80.5,192.2,80.5L192.2,80.5z"/>
			<path class="st1" d="M225.2,58.6v3.8c1.9-3,5-4.8,8.8-4.8c3.2,0,6.7,1.7,8.7,4.6l-5.7,6c-1.8-1.1-4.3-1.8-6.2-1.8
				c-3.5,0-5.7,2-5.7,4.9v17h-11.3V58.6H225.2z"/>
			<path class="st1" d="M243.3,73.5c0-9.2,6.7-15.8,16.4-15.8c9.8,0,16.4,6.7,16.4,15.8c0,9.2-6.7,15.8-16.4,15.8
				C249.9,89.3,243.3,82.6,243.3,73.5z M259.7,79.8c3.3,0,5.5-2.5,5.5-6.3c0-3.8-2.1-6.3-5.5-6.3c-3.3,0-5.5,2.5-5.5,6.3
				C254.2,77.3,256.4,79.8,259.7,79.8z"/>
		</g>
		<g>
			<path class="st0" d="M301.2,45.7c6.9,0,13.1,2.9,16.7,7.4l-5.2,7.8c-3.1-2.7-5.8-4.5-10.3-4.5c-6.4,0-10.5,4.3-10.5,11.1
				s4.1,11.1,10.5,11.1c4.5,0,7.2-1.8,10.3-4.5l5.2,7.8c-3.6,4.5-9.8,7.4-16.7,7.4c-12.6,0-21.8-9.2-21.8-21.8
				S288.5,45.7,301.2,45.7z"/>
			<path class="st0" d="M332.6,46.7v15.4c1.9-2.9,4.9-4.5,8.8-4.5c7.3,0,11.5,4.5,11.5,12.5v18.2h-10.7v-17c0-3.9-1.8-6.1-4.8-6.1
				c-3,0-4.8,2.3-4.8,6.1v17h-10.7V46.7H332.6z"/>
			<path class="st0" d="M368.4,69.5c2.8,0,5.7,0.8,7.7,2c-0.5-2.9-2.7-4.4-5.9-4.4c-2.1,0-4.5,0.4-6.2,2.4l-5.7-6
				c2.4-3.2,7.4-5.9,12.8-5.9c9.6,0,15.8,5,15.8,14.6v16.1h-10.7v-1.1c-2,1.2-4.9,2.1-7.8,2.1c-6.4,0-11.1-4.2-11.1-9.9
				C357.3,73.7,362,69.5,368.4,69.5z M372.1,82.8c2.3,0,4-1,4-2.4v-1.9c0-1.4-1.7-2.4-4-2.4c-2.3,0-3.9,1.4-3.9,3.4
				C368.2,81.4,369.9,82.8,372.1,82.8z"/>
			<path class="st0" d="M395.2,66.9h-4.8v-8.3h4.8v-8.3h10.7v8.3h7.3v8.3h-7.3v9.2c0,2.3,1.4,3.7,3.5,3.7c1.5,0,2.7-0.7,3.5-2l5.7,6
				c-2,3.3-6.2,5.4-10.6,5.4c-7.7,0-12.7-5.3-12.7-13.4V66.9z"/>
		</g>
	</g>
</g>
</svg>
